# xmcd CD database file
#
# Track frame offsets:
#	150
#	11805
#	24467
#	39187
#	62642
#	76030
#	87070
#	99735
#	114547
#	129745
#	154655
#	165095
#	182965
#	191992
#	203290
#	214952
#
# Disc length: 3051 seconds
#
# Revision: 0
# Processed by: cddbd v1.4PL0 Copyright (c) Steve Scherf et al.
# Submitted via: CDex 1.50beta9
#
DISCID=c70be910
DTITLE=Richard Clayderman - The Golden Music of Richard Clayderman Vol.1
DYEAR=1900
DGENRE=Jazz
TTITLE0=Ballade Pour Adeline
TTITLE1=Souvenir D'enfance
TTITLE2=A Comme Amour
TTITLE3=Lyphard Melody
TTITLE4=Mariage D'Amour
TTITLE5=Nostalgy
TTITLE6=Letter Amamere
TTITLE7=Les Fleurs Assuages
TTITLE8=Bianwni Melody
TTITLE9=Au Bord De La Riuiere
TTITLE10=Ping Pong Sous Les Arbres
TTITLE11=Romantica Serenaes
TTITLE12=La Musique De L'Amour
TTITLE13=Wiegenlied
TTITLE14=Tristesse
TTITLE15=Voyage A Vemice
EXTD=
EXTT0=
EXTT1=
EXTT2=
EXTT3=
EXTT4=
EXTT5=
EXTT6=
EXTT7=
EXTT8=
EXTT9=
EXTT10=
EXTT11=
EXTT12=
EXTT13=
EXTT14=
EXTT15=
PLAYORDER=
